<svg id="Calque_1" data-name="Calque 1" xmlns="http://www.w3.org/2000/svg" viewBox="0 0 1423.15 479.47"><title>Plan de travail 1</title><path d="M385.79,2H1423.15q0,238.74,0,477.47H386.36a.49.49,0,0,1-.3-.65,44,44,0,0,0,22.2-7.85c7.81-5.46,13.27-12.87,17.39-21.35,6.19-12.71,8.85-26.31,10.05-40.25a199.92,199.92,0,0,0-.33-35.17,286.63,286.63,0,0,0-6.74-40.84c-.71-3-.73-3,2.19-3.89a300.47,300.47,0,0,0,32.77-12c15.85-6.91,31-15.09,44.6-25.84,9.66-7.63,18.25-16.25,24.35-27.08,9.07-16.1,9.21-32.23,0-48.34-5-8.75-11.75-16-19.34-22.52-12.46-10.68-26.54-18.81-41.34-25.75a301.45,301.45,0,0,0-42.51-15.86c-2.47-.73-2.49-.77-2-3.05a293.46,293.46,0,0,0,7.46-48.19c1-15.94.74-31.8-2.49-47.5-2-9.79-5.13-19.2-10.37-27.79-7.49-12.27-18-20.3-32.38-22.74C388.33,2.6,386.92,2.88,385.79,2ZM724.65,259.68c3.67-.7,6.87-1.14,10-1.92,20.39-5.11,35.38-16.82,43.5-36.48,5.42-13.12,6.37-26.85,3.89-40.73-4.45-24.93-18.85-41.58-42.65-50.1-9.48-3.39-19.35-4.37-29.35-4.37H625.62c-4.18,0-3.75-.33-3.75,3.87q0,108.69,0,217.38c0,.47,0,.95,0,1.42,0,2.31,0,2.34,2.38,2.35q11.08,0,22.16,0c3.91,0,3.55.38,3.55-3.46q0-40.07,0-80.13c0-1.33.07-2.66,0-4s.55-1.87,1.86-1.75c.56.05,1.14,0,1.7,0,12.79,0,25.57.07,38.36-.06a5.07,5.07,0,0,1,4.95,2.78q26.79,42.21,53.7,84.34a4.18,4.18,0,0,0,4.05,2.31c9.19-.11,18.37,0,27.56-.06a4.36,4.36,0,0,0,2.72-.43ZM942.58,313.6c-.41.35-.78.64-1.12,1-17.22,16-37.57,22.22-60.69,18.73-14.6-2.2-26.37-9.57-35.15-21.51-6.67-9.06-10.26-19.3-11.59-30.43-.48-4,.12-3.27,2.83-3.32H961.31c.66,0,1.33,0,2,0,2-.07,2.1-.1,2.12-2.08,0-3.88-.09-7.76-.31-11.64a98.35,98.35,0,0,0-9.2-37.24c-8.44-17.65-21.41-30.6-39.83-37.7-12.82-4.94-26.11-6-39.67-4.38a74,74,0,0,0-40,17.56c-18.12,15.57-27.31,35.72-29.32,59.23a96.5,96.5,0,0,0,2.74,33c5.08,19.32,15.34,35.11,31.95,46.45a79.28,79.28,0,0,0,37,13.34c15.57,1.64,30.8.23,45.55-5.25a84.24,84.24,0,0,0,28.35-17.47c2.2-2.05,2.13-1.75.44-4.08q-3.33-4.6-6.73-9.16A41.19,41.19,0,0,0,942.58,313.6ZM1017,229c1-1.08,1.57-1.81,2.23-2.48A70.54,70.54,0,0,1,1036,213.61c9.72-5.28,20.21-7.4,31.17-7.31,7.73.06,15.28,1.27,22.3,4.77,11.38,5.67,17.9,14.7,18.29,27.56.29,9.56.12,19.13.13,28.69,0,.43.1,1-.5,1.2-.79,0-1.07-.68-1.5-1.12a61.38,61.38,0,0,0-20-13.68,79.74,79.74,0,0,0-25.61-5.79,67.91,67.91,0,0,0-30.09,4.24c-13.09,5.13-22.93,13.81-28.56,26.89-3.92,9.09-4.88,18.64-4,28.38a49.3,49.3,0,0,0,6.23,20.2c7,12.25,17.61,20.06,30.83,24.53,10.17,3.44,20.58,3.79,31.13,2.31,15.38-2.15,28.82-8.27,39.87-19.34.56-.56,1-1.39,1.87-1.51.55.51.38,1.11.38,1.64,0,4.45,0,8.9,0,13.35,0,2.68,0,2.7,2.62,2.71,4.17,0,8.33,0,12.5,0,2.84,0,5.68,0,8.52,0,1.17,0,1.8-.37,1.69-1.63,0-.38,0-.76,0-1.14q0-54.69,0-109.38a68.22,68.22,0,0,0-1.17-13c-3-15.6-11.4-27.21-25.68-34.38a71.93,71.93,0,0,0-26.16-7c-13.92-1.25-27.61-.27-40.92,4.2-12.72,4.27-23.57,11.53-33,21a1.85,1.85,0,0,0-.24,2.88c1.68,2.29,3.2,4.69,4.79,7Zm298.66-16.28a3.17,3.17,0,0,0-.26-.69c-9.2-12-20.8-20.61-35.49-24.71a87.72,87.72,0,0,0-38.83-1.77c-22.38,3.84-39.9,15.26-52.31,34.3-8.24,12.65-12.4,26.67-13.59,41.66a95,95,0,0,0,6.86,45c8.09,19.24,21.43,33.57,40.67,42,16.66,7.28,34,8.41,51.75,5,16.53-3.23,29.68-11.91,40.13-24.94,1.24-1.55,1.25-1.59-.18-2.92q-5.52-5.12-11.08-10.2c-1.39-1.27-2.79-2.53-4.16-3.78a5.87,5.87,0,0,0-1.88,1.91,54.67,54.67,0,0,1-10.2,9.83c-12.82,9.26-27.12,11.16-42.21,7.95-18.48-3.94-30.84-15.41-38.18-32.51-4.4-10.26-5.86-21.08-5.49-32.2a71.56,71.56,0,0,1,6-27.28c6.14-13.64,15.87-23.64,30-29a58.78,58.78,0,0,1,26-3.21,46,46,0,0,1,27.73,11.72,48.93,48.93,0,0,1,6.93,7.5c.82,1.13,1.5,1.15,2.49.22,1.86-1.75,3.8-3.42,5.7-5.14Zm100,113.41c-.43,0-.68.27-1,.51a24.36,24.36,0,0,1-13.32,5.81c-8.59,1.09-14.73-2.68-17.55-10.91a34.05,34.05,0,0,1-1.52-11.2q0-48.31,0-96.61a13,13,0,0,0,0-1.42c-.16-1.42.56-1.8,1.85-1.75,1.89.07,3.79,0,5.68,0h23.3c1.17,0,2.24.14,2.21-1.67-.08-6.35,0-12.69,0-19,0-1.06-.36-1.59-1.48-1.52-.66,0-1.33,0-2,0q-13.64,0-27.28,0c-2.21,0-2.22,0-2.27-2.15,0-.66,0-1.33,0-2q0-19,0-38.08c0-2.34,0-2.37-2.33-2.38-7.1,0-14.21,0-21.31,0-1.39,0-2.19.33-2,1.9a17.77,17.77,0,0,1,0,2q0,19,0,38.08c0,2.64,0,2.66-2.61,2.66h-21.88c-2.59,0-2.6,0-2.61,2.68q0,8.67,0,17.33c0,2.15.05,2.19,2.23,2.2,6,0,11.94,0,17.9,0,2.23,0,4.51-.47,6.71.33.56,2.14.25,4.31.25,6.47q0,48.87,0,97.75a65.87,65.87,0,0,0,1.16,13.84c2.7,12.67,9.88,21.3,22.61,24.75a53.16,53.16,0,0,0,21.14,1,38.47,38.47,0,0,0,18.76-7.51c2.81-2.17,2.9-2.42,1.64-5.68q-2.65-6.89-5.36-13.75C1416.33,327.23,1416.26,326.51,1415.62,326.15Z" style="fill:#fff"/><path d="M385.79,2c1.13.88,2.54.6,3.81.82C404,5.25,414.49,13.28,422,25.55c5.24,8.59,8.35,18,10.37,27.79,3.24,15.7,3.52,31.56,2.49,47.5A293.46,293.46,0,0,1,427.38,149c-.54,2.28-.51,2.32,2,3.05a301.45,301.45,0,0,1,42.51,15.86c14.81,6.93,28.88,15.06,41.34,25.75,7.59,6.51,14.34,13.77,19.34,22.52,9.22,16.11,9.09,32.24,0,48.34-6.1,10.83-14.69,19.45-24.35,27.08-13.62,10.75-28.75,18.93-44.6,25.84a300.47,300.47,0,0,1-32.77,12c-2.93.89-2.9.92-2.19,3.89a286.63,286.63,0,0,1,6.74,40.84,199.92,199.92,0,0,1,.33,35.17c-1.21,13.94-3.86,27.55-10.05,40.25-4.13,8.47-9.58,15.89-17.39,21.35a44,44,0,0,1-22.2,7.85h-12c-.85,0-1.7,0-2.54-.13a108.46,108.46,0,0,1-28.84-8.22c-18-7.73-34.06-18.52-49.23-30.76-6.71-5.41-13.15-11.15-19.39-17.1-1.84-1.75-1.73-1.86-3.57-.1-1.57,1.51-3.17,3-4.78,4.45-14.88,13.58-30.83,25.72-48.53,35.43-14.54,8-29.71,14.2-46.35,16.18-9.62,1.14-19.1.57-28.23-3-11-4.32-18.71-12.28-24.32-22.45-6-10.78-8.83-22.5-10.39-34.59-1.95-15-1.49-30.06.09-45.07a295.8,295.8,0,0,1,6.93-38.81c.74-3.05.73-3.07-2.16-3.91a272.66,272.66,0,0,1-29.69-10.51c-18.59-7.82-36.21-17.33-51.68-30.45-8.58-7.27-16.16-15.44-21.62-25.38a50.62,50.62,0,0,1-6.6-21.53c-.63-10.62,2.55-20.18,8.05-29.08,6-9.72,14-17.59,23-24.57,12.32-9.62,25.91-17.06,40.13-23.42a317.63,317.63,0,0,1,39.22-14.15c2.37-.71,2.36-.72,1.84-3-.73-3.23-1.5-6.45-2.18-9.69-4.56-21.66-7.3-43.48-6-65.68a126.77,126.77,0,0,1,5.27-31c2.92-9.31,7.14-17.95,13.82-25.19C135.34,7.27,146.87,3,160,2.61a83.21,83.21,0,0,1,27.1,4.16c14.77,4.55,28.33,11.65,41.27,20a288.83,288.83,0,0,1,41.34,32.8c2.07,2,1.7,1.87,3.72-.08,4.22-4.09,8.58-8,13-11.84,14.28-12.24,29.44-23.23,46.19-31.89,10.81-5.59,22-10,34-12.35,2.57-.5,5.25-.39,7.73-1.41ZM268.31,327.12c17.82,0,33.62-.48,49.41-1.56a4.68,4.68,0,0,0,4.14-2.28A776.09,776.09,0,0,0,368,243a5.23,5.23,0,0,0-.12-5.27q-12.63-25-26.93-49-9.23-15.5-19.28-30.49c-.79-1.18-1.5-2.15-3.26-2.26-12.86-.79-25.72-1.43-38.6-1.61-18.48-.25-36.93.38-55.37,1.59a4,4,0,0,0-3.36,2.13c-5.2,7.8-10.32,15.66-15.23,23.65q-17,27.61-31.13,56.75a4.28,4.28,0,0,0-.23,4.23,667.21,667.21,0,0,0,46.95,81,4.06,4.06,0,0,0,3.47,2c4.16.21,8.32.58,12.48.68C248.34,326.71,259.32,327.33,268.31,327.12ZM26,240.24a21.21,21.21,0,0,0,.35,3.67c1.19,6.33,4.41,11.64,8.31,16.59,6,7.66,13.43,13.85,21.41,19.37,14.9,10.3,31.17,17.86,48.14,24,5.34,1.93,10.73,3.7,16.19,5.25,1,.29,1.62.25,1.85-.9a15.29,15.29,0,0,1,.5-1.62c2.85-8.92,5.88-17.78,9.18-26.55,4.74-12.58,9.86-25,15.51-37.19a4.12,4.12,0,0,0,0-4c-1.2-2.36-2.22-4.81-3.28-7.24a539.07,539.07,0,0,1-21.27-56.25c-.71-2.26-.75-2.29-2.86-1.67a274.82,274.82,0,0,0-42.48,15.91C65,195.69,53,202.75,42.55,212.14c-5.6,5-10.54,10.61-13.87,17.46A24.27,24.27,0,0,0,26,240.24ZM129.53,399.59c.39,9.6,1,17.52,2.73,25.31,1.68,7.43,4,14.6,8.46,20.91a22.38,22.38,0,0,0,13.92,9.58,40.17,40.17,0,0,0,12.72.55,83.15,83.15,0,0,0,23-6.07c24.63-10.16,45.39-26,64.58-44.14,1-.94,1-1.6.06-2.57q-4.44-4.79-8.76-9.7a554.92,554.92,0,0,1-34.66-43.91,4.57,4.57,0,0,0-3.69-2.1c-9.14-.86-18.28-1.72-27.38-2.88q-20.27-2.58-40.28-6.82c-2.31-.49-2.29-.47-2.89,2-2.22,9-4,18.09-5.37,27.27A223.7,223.7,0,0,0,129.53,399.59ZM413.36,399a238.87,238.87,0,0,0-2.71-38.62c-1.15-7.48-2.66-14.9-4.42-22.26-.3-1.26-.6-2-2.25-1.58-12.07,2.81-24.27,5-36.53,6.81-10.21,1.5-20.43,2.82-30.72,3.64a6.6,6.6,0,0,0-5.53,3.12,508.26,508.26,0,0,1-39.74,50.73c-.82.92-1.61,1.86-2.44,2.78a1,1,0,0,0,.08,1.7c.43.38.82.79,1.23,1.18A273.54,273.54,0,0,0,321,431.81c11.5,8.09,23.54,15.19,36.83,20,8.07,2.91,16.32,4.89,25,4.38,7.07-.42,13-3.14,17.42-8.79s7-11.88,8.92-18.56A117.87,117.87,0,0,0,413.36,399ZM129.85,84.21A208.25,208.25,0,0,0,131,105.48a277.88,277.88,0,0,0,6.67,37.7c.52,2.17.56,2.16,2.82,1.67a555.2,555.2,0,0,1,67.29-10.38,3.7,3.7,0,0,0,3-1.72c1.77-2.58,3.63-5.09,5.49-7.6a543.19,543.19,0,0,1,37.47-45.67c1.66-1.81,1.63-1.84-.1-3.54l-.41-.39a274.85,274.85,0,0,0-33.85-27.21C208.07,40.71,196.21,34,183.19,29.62,175,26.85,166.64,25,157.85,25.75a22.22,22.22,0,0,0-16.94,9.61A49.29,49.29,0,0,0,134,50.23C130.73,61.33,129.76,72.71,129.85,84.21Zm282.66,2.14c-.09-11.52-.91-22.83-4-33.86-2-7.17-4.66-14-9.61-19.74a20.62,20.62,0,0,0-11.72-7,39.86,39.86,0,0,0-13.84-.18c-9.27,1.34-17.95,4.56-26.32,8.64-21.78,10.59-40.5,25.42-57.93,42-1.46,1.39-1.43,1.45.06,3.1q11.46,12.62,22.11,25.93t20.43,27.27a3.64,3.64,0,0,0,2.85,2c4.8.41,9.59,1,14.39,1.56q21.44,2.44,42.57,6.79,5.14,1.06,10.27,2.17c2.78.6,2.78.62,3.43-2q.4-1.65.77-3.31A256.77,256.77,0,0,0,412.51,86.35ZM422,308.08c.33-.07.7-.11,1.05-.22,19.72-6,38.75-13.56,56.44-24.22a116,116,0,0,0,25-19.53,51.23,51.23,0,0,0,9.94-14.42,21.91,21.91,0,0,0,0-18.68,48.73,48.73,0,0,0-8.75-12.85c-7.11-7.74-15.49-13.88-24.42-19.31-16.93-10.28-35.15-17.6-54-23.47-1.62-.51-3.27-.94-4.89-1.48-1.08-.36-1.85-.33-2.07,1a7.87,7.87,0,0,1-.34,1.08,526.31,526.31,0,0,1-24.06,61.53,6.13,6.13,0,0,0,.07,5.81A525.63,525.63,0,0,1,421,306,4.6,4.6,0,0,0,422,308.08ZM381.52,267c-1.9,3.55-3.53,6.63-5.19,9.7s-3.35,6.15-5.06,9.21-3.43,6.11-5.18,9.14-3.61,6.22-5.45,9.32-3.61,6-5.43,9l-5.6,9.22A468.18,468.18,0,0,0,399.46,314,475.69,475.69,0,0,0,381.52,267ZM240.37,349.52c3,5.58,27.94,35.28,31.94,38.15,6.58-6.3,28.85-34,30.75-38.29C282.19,350.22,261.4,350.15,240.37,349.52ZM193.47,323c-11.68-18.08-22.1-36.2-32-55-.42.82-.66,1.23-.83,1.65-5.65,13.63-10.84,27.44-15.34,41.5a21.84,21.84,0,0,1-.77,2.43c-.58,1.28,0,1.71,1.15,1.89.28,0,.55.15.82.21C161.83,318.81,177.22,321.25,193.47,323ZM302.68,132.14a4.68,4.68,0,0,0-.3-.93q-13.94-18.67-29.62-35.89c-1.17-1.28-1.22-1.25-2.59.23-10.2,11.08-19.8,22.66-28.94,34.62-.37.49-1,.89-.73,1.93C261.12,131.26,281.78,131.23,302.68,132.14Zm78.55,81.57c.52-1.07.86-1.7,1.14-2.36,5.52-13.08,10.54-26.34,14.88-39.86,1.22-3.81,1.24-3.78-2.54-4.61-11.08-2.45-22.26-4.39-33.48-6.13-3.63-.57-7.29-1-11.6-1.53C361,177.15,371.3,195.07,381.23,213.71ZM192.67,159.55a8.52,8.52,0,0,0-3.37,0c-10.58,1.46-21.13,3.12-31.63,5.12-3.62.69-7.23,1.46-10.83,2.25-2.39.52-2.38.56-1.64,3,.05.18.1.37.15.55,4.44,14,9.55,27.7,15.19,41.24.23.56.27,1.3,1.21,1.53C171.16,194.95,181.5,177.16,192.67,159.55Z" style="fill:#02d8ff"/><path d="M374.42,2c-2.47,1-5.15.91-7.73,1.41-12,2.33-23.23,6.77-34,12.35-16.75,8.66-31.91,19.65-46.19,31.89-4.46,3.82-8.82,7.76-13,11.84-2,1.95-1.65,2-3.72.08a288.83,288.83,0,0,0-41.34-32.8c-12.94-8.34-26.5-15.44-41.27-20A83.21,83.21,0,0,0,160,2.61c-13.14.4-24.66,4.66-33.74,14.5-6.68,7.24-10.9,15.88-13.82,25.19a126.77,126.77,0,0,0-5.27,31c-1.26,22.2,1.48,44,6,65.68.68,3.24,1.44,6.46,2.18,9.69.52,2.3.53,2.31-1.84,3a317.63,317.63,0,0,0-39.22,14.15c-14.22,6.36-27.81,13.8-40.13,23.42-8.94,7-17,14.85-23,24.57-5.51,8.9-8.68,18.46-8.05,29.08a50.62,50.62,0,0,0,6.6,21.53c5.46,9.94,13,18.11,21.62,25.38,15.47,13.12,33.08,22.63,51.68,30.45a272.66,272.66,0,0,0,29.69,10.51c2.9.84,2.91.86,2.16,3.91A295.8,295.8,0,0,0,108,373.48c-1.58,15-2,30.05-.09,45.07,1.57,12.09,4.44,23.82,10.39,34.59,5.62,10.17,13.3,18.13,24.32,22.45,9.13,3.58,18.6,4.15,28.23,3,16.63-2,31.81-8.21,46.35-16.18,17.7-9.71,33.65-21.85,48.53-35.43,1.61-1.47,3.21-2.94,4.78-4.45,1.84-1.77,1.73-1.66,3.57.1,6.24,5.95,12.68,11.68,19.39,17.1,15.17,12.24,31.24,23,49.23,30.76a108.46,108.46,0,0,0,28.84,8.22c.84.11,1.69.09,2.54.13a.47.47,0,0,1-.24.64H2.15V2Z" style="fill:#fff"/><path d="M373.85,479.47a.47.47,0,0,0,.24-.64h12a.49.49,0,0,0,.3.65Z" style="fill:#0bd9fe"/><path d="M724.65,259.68l60.2,91a4.36,4.36,0,0,1-2.72.43c-9.19,0-18.38-.05-27.56.06a4.18,4.18,0,0,1-4.05-2.31q-26.82-42.19-53.7-84.34a5.07,5.07,0,0,0-4.95-2.78c-12.79.13-25.57.06-38.36.06-.57,0-1.14,0-1.7,0-1.3-.12-1.94.35-1.86,1.75s0,2.65,0,4q0,40.07,0,80.13c0,3.84.37,3.45-3.55,3.46q-11.08,0-22.16,0c-2.33,0-2.34,0-2.38-2.35,0-.47,0-.95,0-1.42q0-108.69,0-217.38c0-4.21-.43-3.87,3.75-3.87H710c10,0,19.87,1,29.35,4.37,23.8,8.51,38.2,25.17,42.65,50.1,2.48,13.88,1.53,27.61-3.89,40.73-8.12,19.66-23.1,31.37-43.5,36.48C731.52,258.54,728.33,259,724.65,259.68ZM650,194.43h0q0,19.88,0,39.77c0,3.39-.08,3.06,3.09,3.06q27.41,0,54.82,0a56.37,56.37,0,0,0,14.07-1.62c11.42-2.95,20.53-9.09,26.44-19.46,5-8.76,6.5-18.23,5.26-28.22-2.24-18.08-14.61-31.56-32.43-35.38a75.23,75.23,0,0,0-15.51-1.42c-17.42-.07-34.84,0-52.26,0-.57,0-1.14,0-1.7,0-1.39-.12-1.88.55-1.76,1.85,0,.47,0,.95,0,1.42Q650,174.4,650,194.43Z" style="fill:#0bd9fe"/><path d="M942.58,313.6a41.19,41.19,0,0,1,3.85,5q3.4,4.55,6.73,9.16c1.69,2.33,1.76,2-.44,4.08a84.24,84.24,0,0,1-28.35,17.47c-14.75,5.48-30,6.89-45.55,5.25a79.28,79.28,0,0,1-37-13.34c-16.61-11.34-26.87-27.13-31.95-46.45a96.5,96.5,0,0,1-2.74-33c2-23.52,11.2-43.67,29.32-59.23a74,74,0,0,1,40-17.56c13.56-1.67,26.85-.56,39.67,4.38,18.42,7.1,31.39,20.05,39.83,37.7a98.35,98.35,0,0,1,9.2,37.24c.22,3.88.35,7.76.31,11.64,0,2-.09,2-2.12,2.08-.66,0-1.33,0-2,0H836.85c-2.71,0-3.31-.72-2.83,3.32,1.33,11.13,4.92,21.37,11.59,30.43,8.78,11.94,20.56,19.31,35.15,21.51,23.13,3.48,43.47-2.74,60.69-18.73C941.8,314.23,942.17,313.95,942.58,313.6ZM886.85,259h50.87c2.5,0,2.51,0,2.41-2.48a55,55,0,0,0-4.66-19.78c-5.5-12.69-14.29-22.2-27.22-27.57a54.74,54.74,0,0,0-18.8-3.93c-9.86-.43-19.24,1.31-27.93,6.11-10.05,5.55-17.14,13.9-22.05,24.15A59.06,59.06,0,0,0,833.67,257c-.13,1.9-.06,1.91,1.75,2,.66,0,1.33,0,2,0Z" style="fill:#0bd9fe"/><path d="M1017,229l-6.09-9.06c-1.59-2.36-3.11-4.76-4.79-7a1.85,1.85,0,0,1,.24-2.88c9.46-9.44,20.31-16.69,33-21,13.32-4.47,27-5.46,40.92-4.2a71.93,71.93,0,0,1,26.16,7c14.28,7.17,22.67,18.77,25.68,34.38a68.22,68.22,0,0,1,1.17,13q0,54.69,0,109.38c0,.38,0,.76,0,1.14.12,1.26-.52,1.65-1.69,1.63-2.84,0-5.68,0-8.52,0-4.17,0-8.33,0-12.5,0-2.59,0-2.61,0-2.62-2.71,0-4.45,0-8.9,0-13.35,0-.53.18-1.13-.38-1.64-.9.11-1.31.94-1.87,1.51-11.06,11.06-24.49,17.18-39.87,19.34-10.55,1.48-21,1.13-31.13-2.31-13.22-4.47-23.81-12.28-30.83-24.53a49.3,49.3,0,0,1-6.23-20.2c-.9-9.74.07-19.3,4-28.38,5.63-13.07,15.47-21.76,28.56-26.89a67.91,67.91,0,0,1,30.09-4.24,79.74,79.74,0,0,1,25.61,5.79,61.38,61.38,0,0,1,20,13.68c.43.44.71,1.14,1.5,1.12.6-.23.5-.77.5-1.2,0-9.56.16-19.13-.13-28.69-.4-12.86-6.91-21.89-18.29-27.56-7-3.5-14.57-4.71-22.3-4.77-11-.09-21.44,2-31.17,7.31a70.54,70.54,0,0,0-16.84,12.92C1018.55,227.21,1017.95,227.93,1017,229Zm91.08,72.23c0-4.45,0-8.9,0-13.35a5.21,5.21,0,0,0-1.28-3.61,45,45,0,0,0-13-10.79,60.37,60.37,0,0,0-25.69-7.36,50.65,50.65,0,0,0-23.89,3.61c-21.5,9.22-25.71,32.62-16.82,48.66,5.18,9.35,13.44,14.73,23.61,17.21,12.14,3,24.06,1.63,35.65-2.8a47.8,47.8,0,0,0,19.4-13.46,7.17,7.17,0,0,0,2.1-5.33C1107.92,309.78,1108.06,305.51,1108.06,301.25Z" style="fill:#0bd9fe"/><path d="M1315.64,212.74l-9.62,8.71c-1.9,1.71-3.84,3.38-5.7,5.14-1,.93-1.66.91-2.49-.22a48.93,48.93,0,0,0-6.93-7.5,46,46,0,0,0-27.73-11.72,58.78,58.78,0,0,0-26,3.21c-14.17,5.33-23.9,15.32-30,29a71.56,71.56,0,0,0-6,27.28c-.37,11.12,1.08,21.94,5.49,32.2,7.34,17.1,19.7,28.57,38.18,32.51,15.08,3.21,29.38,1.31,42.21-7.95a54.67,54.67,0,0,0,10.2-9.83,5.87,5.87,0,0,1,1.88-1.91c1.38,1.25,2.78,2.51,4.16,3.78q5.55,5.09,11.08,10.2c1.43,1.33,1.42,1.38.18,2.92-10.44,13-23.6,21.72-40.13,24.94-17.73,3.46-35.09,2.33-51.75-5-19.24-8.41-32.58-22.73-40.67-42a95,95,0,0,1-6.86-45c1.19-15,5.35-29,13.59-41.66,12.41-19,29.93-30.46,52.31-34.3a87.72,87.72,0,0,1,38.83,1.77c14.69,4.1,26.29,12.69,35.49,24.71A3.17,3.17,0,0,1,1315.64,212.74Z" style="fill:#0bd9fe"/><path d="M1415.62,326.15c.64.37.71,1.08,1,1.68q2.7,6.87,5.36,13.75c1.25,3.26,1.17,3.51-1.64,5.68a38.47,38.47,0,0,1-18.76,7.51,53.16,53.16,0,0,1-21.14-1c-12.73-3.46-19.91-12.08-22.61-24.75a65.87,65.87,0,0,1-1.16-13.84q0-48.87,0-97.75c0-2.15.31-4.33-.25-6.47-2.2-.8-4.48-.3-6.71-.33-6-.09-11.93,0-17.9,0-2.18,0-2.22,0-2.23-2.2q0-8.67,0-17.33c0-2.66,0-2.68,2.61-2.68H1354c2.59,0,2.61,0,2.61-2.66q0-19,0-38.08a17.77,17.77,0,0,0,0-2c-.18-1.57.62-1.91,2-1.9,7.1,0,14.21,0,21.31,0,2.3,0,2.33,0,2.33,2.38q0,19,0,38.08c0,.66,0,1.33,0,2,.05,2.11.06,2.15,2.27,2.15q13.64,0,27.28,0c.66,0,1.33,0,2,0,1.11-.07,1.48.46,1.48,1.52,0,6.35-.06,12.69,0,19,0,1.81-1,1.67-2.21,1.67h-23.3c-1.89,0-3.79.05-5.68,0-1.29,0-2,.33-1.85,1.75a13,13,0,0,1,0,1.42q0,48.31,0,96.61a34.05,34.05,0,0,0,1.52,11.2c2.82,8.23,9,12,17.55,10.91a24.36,24.36,0,0,0,13.32-5.81C1414.94,326.42,1415.19,326.13,1415.62,326.15Z" style="fill:#0bd9fe"/><path d="M268.31,327.12c-9,.21-20-.42-31-.69-4.16-.1-8.32-.48-12.48-.68a4.06,4.06,0,0,1-3.47-2,667.21,667.21,0,0,1-46.95-81,4.28,4.28,0,0,1,.23-4.23q14.22-29.11,31.13-56.75c4.91-8,10-15.84,15.23-23.65a4,4,0,0,1,3.36-2.13c18.44-1.21,36.89-1.85,55.37-1.59,12.88.18,25.74.81,38.6,1.61,1.76.11,2.47,1.08,3.26,2.26q10,15,19.28,30.49,14.31,24,26.93,49A5.23,5.23,0,0,1,368,243a776.09,776.09,0,0,1-46.11,80.24,4.68,4.68,0,0,1-4.14,2.28C301.93,326.65,286.13,327.16,268.31,327.12Zm2.77-39a47.88,47.88,0,1,0-47.74-48.31C223,267.35,245.79,288.35,271.08,288.1Z" style="fill:#fff"/><path d="M26,240.24a24.27,24.27,0,0,1,2.7-10.63C32,222.76,37,217.18,42.55,212.14c10.44-9.39,22.4-16.45,35-22.54A274.82,274.82,0,0,1,120,173.7c2.11-.62,2.15-.6,2.86,1.67a539.07,539.07,0,0,0,21.27,56.25c1.07,2.43,2.09,4.88,3.28,7.24a4.12,4.12,0,0,1,0,4c-5.65,12.2-10.77,24.62-15.51,37.19-3.3,8.76-6.33,17.63-9.18,26.55a15.29,15.29,0,0,0-.5,1.62c-.23,1.15-.82,1.19-1.85.9-5.46-1.56-10.85-3.32-16.19-5.25-17-6.13-33.25-13.7-48.14-24-8-5.52-15.37-11.71-21.41-19.37-3.9-4.95-7.12-10.26-8.31-16.59A21.21,21.21,0,0,1,26,240.24Z" style="fill:#fff"/><path d="M129.53,399.59A223.7,223.7,0,0,1,131.94,367c1.33-9.18,3.15-18.27,5.37-27.27.6-2.42.58-2.45,2.89-2q20,4.21,40.28,6.82c9.1,1.16,18.25,2,27.38,2.88a4.57,4.57,0,0,1,3.69,2.1,554.92,554.92,0,0,0,34.66,43.91q4.31,4.91,8.76,9.7c.9,1,.94,1.62-.06,2.57-19.19,18.14-39.95,34-64.58,44.14a83.15,83.15,0,0,1-23,6.07,40.17,40.17,0,0,1-12.72-.55,22.38,22.38,0,0,1-13.92-9.58c-4.44-6.32-6.79-13.48-8.46-20.91C130.5,417.11,129.92,409.18,129.53,399.59Z" style="fill:#fff"/><path d="M413.36,399a117.87,117.87,0,0,1-4.25,29.86c-1.94,6.68-4.56,13-8.92,18.56s-10.35,8.38-17.42,8.79c-8.67.51-16.92-1.47-25-4.38-13.29-4.79-25.33-11.9-36.83-20a273.54,273.54,0,0,1-30.6-25.35c-.41-.39-.8-.81-1.23-1.18a1,1,0,0,1-.08-1.7c.83-.91,1.61-1.86,2.44-2.78a508.26,508.26,0,0,0,39.74-50.73,6.6,6.6,0,0,1,5.53-3.12c10.28-.81,20.51-2.13,30.72-3.64,12.26-1.81,24.46-4,36.53-6.81,1.65-.38,2,.33,2.25,1.58,1.76,7.36,3.27,14.78,4.42,22.26A238.87,238.87,0,0,1,413.36,399Z" style="fill:#fff"/><path d="M129.86,84.21c-.1-11.51.88-22.89,4.14-34a49.29,49.29,0,0,1,6.91-14.87,22.22,22.22,0,0,1,16.94-9.61c8.79-.79,17.13,1.1,25.34,3.87,13,4.39,24.87,11.09,36.23,18.71a274.85,274.85,0,0,1,33.85,27.21l.41.39c1.73,1.7,1.76,1.73.1,3.54a543.19,543.19,0,0,0-37.47,45.67c-1.85,2.52-3.72,5-5.49,7.6a3.7,3.7,0,0,1-3,1.72,555.2,555.2,0,0,0-67.29,10.38c-2.26.49-2.3.5-2.82-1.67a277.88,277.88,0,0,1-6.67-37.7A207.89,207.89,0,0,1,129.86,84.21Z" style="fill:#fff"/><path d="M412.51,86.35a256.77,256.77,0,0,1-6.5,53.29q-.37,1.66-.77,3.31c-.65,2.67-.65,2.65-3.43,2q-5.13-1.11-10.27-2.17-21.13-4.36-42.57-6.79c-4.79-.55-9.58-1.15-14.39-1.56a3.64,3.64,0,0,1-2.85-2q-9.82-13.93-20.43-27.27T289.2,79.31c-1.5-1.65-1.53-1.71-.06-3.1,17.43-16.59,36.15-31.41,57.93-42,8.37-4.07,17.05-7.3,26.32-8.64a39.86,39.86,0,0,1,13.84.18,20.62,20.62,0,0,1,11.72,7c4.95,5.73,7.63,12.57,9.61,19.74C411.6,63.52,412.42,74.82,412.51,86.35Z" style="fill:#fff"/><path d="M422,308.08a4.6,4.6,0,0,1-1-2.09,525.63,525.63,0,0,0-25.08-62.65,6.13,6.13,0,0,1-.07-5.81A526.31,526.31,0,0,0,419.9,176a7.87,7.87,0,0,0,.34-1.08c.22-1.34,1-1.37,2.07-1,1.61.54,3.26,1,4.89,1.48,18.85,5.87,37.07,13.19,54,23.47,8.93,5.43,17.32,11.57,24.42,19.31A48.73,48.73,0,0,1,514.38,231a21.91,21.91,0,0,1,0,18.68,51.23,51.23,0,0,1-9.94,14.42,116,116,0,0,1-25,19.53c-17.7,10.66-36.72,18.26-56.44,24.22C422.66,308,422.29,308,422,308.08Z" style="fill:#fff"/><path d="M381.52,267a475.69,475.69,0,0,1,17.94,47,468.18,468.18,0,0,1-49.84,8.57l5.6-9.22c1.81-3,3.64-6,5.43-9s3.65-6.2,5.45-9.32,3.47-6.08,5.18-9.14,3.39-6.13,5.06-9.21S379.62,270.57,381.52,267Z" style="fill:#fff"/><path d="M240.37,349.52c21,.62,41.82.69,62.69-.13-1.9,4.32-24.16,32-30.75,38.29C268.3,384.8,243.38,355.1,240.37,349.52Z" style="fill:#fff"/><path d="M193.47,323c-16.25-1.76-31.64-4.2-46.92-7.36-.28-.06-.55-.17-.82-.21-1.13-.18-1.73-.62-1.15-1.89a21.84,21.84,0,0,0,.77-2.43c4.5-14.06,9.69-27.87,15.34-41.5.18-.43.42-.83.83-1.65C171.37,286.81,181.79,304.93,193.47,323Z" style="fill:#fff"/><path d="M302.68,132.14c-20.9-.91-41.56-.88-62.18,0-.3-1,.35-1.44.73-1.93,9.14-12,18.74-23.54,28.94-34.62,1.37-1.49,1.42-1.52,2.59-.23q15.66,17.25,29.62,35.89A4.68,4.68,0,0,1,302.68,132.14Z" style="fill:#fff"/><path d="M381.23,213.71c-9.93-18.64-20.19-36.55-31.59-54.5,4.31.56,8,1,11.6,1.53,11.21,1.75,22.39,3.69,33.48,6.13,3.78.83,3.76.8,2.54,4.61-4.33,13.52-9.35,26.79-14.88,39.86C382.09,212,381.75,212.64,381.23,213.71Z" style="fill:#fff"/><path d="M192.67,159.55c-11.16,17.61-21.5,35.4-30.9,53.7-.95-.23-1-1-1.21-1.53-5.64-13.53-10.75-27.26-15.19-41.24-.06-.18-.1-.36-.15-.55-.74-2.46-.75-2.5,1.64-3,3.6-.78,7.21-1.55,10.83-2.25,10.49-2,21-3.66,31.63-5.12A8.52,8.52,0,0,1,192.67,159.55Z" style="fill:#fff"/><path d="M650,194.43q0-20,0-40c0-.47,0-.95,0-1.42-.12-1.3.38-2,1.76-1.85.56,0,1.14,0,1.7,0,17.42,0,34.84,0,52.26,0a75.23,75.23,0,0,1,15.51,1.42c17.82,3.82,30.19,17.3,32.43,35.38,1.24,10-.27,19.45-5.26,28.22-5.91,10.37-15,16.52-26.44,19.46a56.37,56.37,0,0,1-14.07,1.62q-27.41,0-54.82,0c-3.17,0-3.09.34-3.09-3.06q0-19.88,0-39.77Z" style="fill:#fff"/><path d="M886.85,259H837.4c-.66,0-1.33,0-2,0-1.81-.07-1.88-.09-1.75-2a59.06,59.06,0,0,1,5.82-21.53c4.91-10.25,12-18.59,22.05-24.15,8.69-4.8,18.07-6.54,27.93-6.11a54.74,54.74,0,0,1,18.8,3.93c12.93,5.37,21.71,14.88,27.22,27.57a55,55,0,0,1,4.66,19.78c.1,2.45.09,2.48-2.41,2.48Z" style="fill:#fff"/><path d="M1108.06,301.25c0,4.26-.14,8.53.06,12.78a7.17,7.17,0,0,1-2.1,5.33,47.8,47.8,0,0,1-19.4,13.46c-11.59,4.43-23.51,5.75-35.65,2.8-10.17-2.47-18.43-7.86-23.61-17.21-8.9-16-4.68-39.45,16.82-48.66a50.65,50.65,0,0,1,23.89-3.61,60.37,60.37,0,0,1,25.69,7.36,45,45,0,0,1,13,10.79,5.21,5.21,0,0,1,1.28,3.61C1108,292.35,1108.06,296.8,1108.06,301.25Z" style="fill:#fff"/><path d="M271.08,288.1c-25.29.25-48-20.75-47.74-48.31a47.94,47.94,0,1,1,47.74,48.31Z" style="fill:#02d8ff"/></svg>