<svg id="Calque_1" data-name="Calque 1" xmlns="http://www.w3.org/2000/svg" viewBox="0 0 256 140"><title>Plan de travail 1</title><path d="M78.07,92.59A23.21,23.21,0,1,0,54.86,69.38,23.21,23.21,0,0,0,78.07,92.59ZM23.21,139A23.21,23.21,0,1,0,0,115.8,23.21,23.21,0,0,0,23.21,139Zm209.58,0a23.21,23.21,0,1,0-23.21-23.21A23.21,23.21,0,0,0,232.79,139Z"/><path d="M156.57,70.36c-.74-7.75-1.12-14.21-7.06-18.74-7.52-5.74-16-2-26.54-5.81a23.33,23.33,0,0,1-18-22.57,23.7,23.7,0,0,1,45.26-9.36c5.6,10.64,2,21.47,9,26.92,8.33,6.46,19.57,1.73,32.1,7.85a23.61,23.61,0,0,1,9.84,8.43A22.86,22.86,0,0,1,205,69.72a23.33,23.33,0,0,1-18,22.57c-10.5,3.79-19,.06-26.54,5.81-8.46,6.46-3.93,17.27-10.83,28.68a23.67,23.67,0,0,1-21,12.66,23.18,23.18,0,0,1-10-44.31c12.54-6.12,23.77-1.39,32.1-7.85C155.55,83.56,156.57,77.81,156.57,70.36Z" style="fill:#d0021b"/></svg>