<svg id="Calque_1" data-name="Calque 1" xmlns="http://www.w3.org/2000/svg" viewBox="0 0 1366 563.81"><title>Plan de travail 1</title><path d="M0,563.81V0H1366V563.81ZM688.55,360.29a1.68,1.68,0,0,0-.26-1.81Q672,331.87,655.76,305.27a28.4,28.4,0,0,0-6.77-7.58c-1.58-1.23-3.24-2.35-4.84-3.51.12-.21.15-.34.22-.38q1-.52,2-1c19.26-9.14,29.08-24.29,28.62-45.69-.38-17.76-8.51-30.73-24.82-38.26a76,76,0,0,0-29.66-6.74c-19.41-.64-38.83-.16-58.25-.25-2.59,0-2.59.07-2.66,2.81,0,.88,0,1.77,0,2.65q0,53.71,0,107.43,0,21.18,0,42.37c0,3.22,0,3.25,3.33,3.25q15.13,0,30.26,0c3.56,0,3.24.24,3.24-3.28q0-23.83,0-47.66c0-1.77.12-3.54,0-5.29-.17-1.94.72-2.38,2.43-2.31,2.64.1,5.3.07,7.94,0a10.39,10.39,0,0,1,9.41,5.29c.54.85,1,1.74,1.51,2.62,8.2,14.32,16.44,28.62,24.59,43,2.57,4.52,6.27,7.41,11.46,7.49C665.38,360.42,677,360.29,688.55,360.29Zm181.91-13.82c.86,2.83,1.52,5.23,2.3,7.58,1.5,4.54,3.83,6.25,8.69,6.29q8.32.07,16.65,0c4.75,0,4.1.62,4.11-4.29q0-77.18,0-154.36c0-.76-.05-1.52,0-2.27.11-1.43-.43-2-1.93-2q-14.94.07-29.89,0c-1.44,0-2.11.48-2,2,.06.88,0,1.76,0,2.65q0,23.84,0,47.67c0,1.28.37,2.68-.63,4-4.26-3.09-8.49-5.86-13.45-7-13.31-3.19-25.79-1.3-37.12,6.6-9.24,6.44-15.12,15.41-18.7,25.93-5.18,15.22-5.16,30.7-1.76,46.25,1.88,8.59,5.24,16.58,10.91,23.42,6,7.28,13.64,11.89,23.16,12.94,13.55,1.5,25.39-2.39,35.5-11.55Zm120.34,2.09c.78,2.45,1.37,4.47,2.07,6.45,1.06,3,3.13,5.09,6.32,5.19,7.05.22,14.12.1,21.18.16,1.37,0,1.72-.72,1.67-1.9,0-.88,0-1.77,0-2.65q0-27.24,0-54.48,0-25.16,0-50.32c0-4.06-.1-3.55-3.43-3.56H991.77c-3.56,0-3.54-.48-3.53,3.4q0,11.73,0,23.46,0,25.16,0,50.32c0,1.32.49,2.8-.8,3.9-6,5.13-12.71,8.75-20.94,8C960,336,956,332.27,954.26,325.92a30,30,0,0,1-.77-7.87q0-32.91,0-65.83c0-.88-.07-1.77,0-2.65.16-1.71-.68-2.13-2.23-2.12-9.84,0-19.67,0-29.51,0H921c-.88,0-1.42.41-1.43,1.35,0,.76,0,1.51,0,2.27q0,33.86,0,67.72a58,58,0,0,0,1.55,13.87c3.43,14,11.28,24.34,25.64,28,14,3.62,27.26,1.12,38.92-7.94C987.26,351.56,988.78,350.24,990.81,348.56ZM715,310.16H776.4c1.26,0,2.53,0,3.78-.06,4.85-.33,6.37-1.79,7-6.67a55.74,55.74,0,0,0-1-19.55c-4.09-18.4-14.88-30.77-33.24-36.09A58.49,58.49,0,0,0,731.21,246c-20.57,1.89-36.16,11.67-44.78,30.66-8.47,18.65-7.28,37.6,1.3,56,6.31,13.51,17,22.44,31.28,26.66,16.65,4.94,33.15,3.75,49.2-2.84a47.35,47.35,0,0,0,16.18-11c3-3.06,2.8-2.41.39-5.4-2.22-2.75-4.66-5.34-6.63-8.26-3.42-5-8.34-4.89-12.66-2.88-2.51,1.17-4.94,2.52-7.41,3.77a35.57,35.57,0,0,1-19.36,4c-7.23-.62-13.48-3.26-17.89-9.25C717.14,322.49,715.6,316.69,715,310.16Zm313.38,49.73a4.62,4.62,0,0,0,1.07.43c9.71,0,19.42,0,29.13,0a7.93,7.93,0,0,0,5.73-2.47,25.42,25.42,0,0,0,4.27-5.75c6-10.41,12.38-20.58,18.12-31.2,1.2.84,1.59,2.08,2.21,3.14q8.78,15,17.48,30.07c2.4,4.18,5.65,6.4,10.72,6.27,9.33-.24,18.66-.06,28-.08a6,6,0,0,0,3.11-.41c-.76-1.25-1.39-2.31-2-3.35-11.18-17.68-22.33-35.39-33.61-53-1.41-2.21-1.52-3.71,0-6,10.74-15.41,21.32-30.93,31.92-46.44.74-1.08,1.84-2,1.86-3.72-9.61,0-19.06.19-28.49-.08-4.82-.14-7.8,1.88-10,5.91-4.15,7.5-8.48,14.89-12.72,22.34-1.6,2.81-3.17,5.63-4.87,8.67-.78-1.23-1.4-2.17-2-3.13-5.66-9.39-11.45-18.71-16.93-28.2-2.29-4-5.3-5.64-9.83-5.55-9.58.18-19.17,0-28.75.07a3.66,3.66,0,0,0-2.73.49c.62,1,1.2,2.09,1.88,3.1,10.55,15.84,21.05,31.72,31.71,47.49,1.68,2.49,2,4.25.18,6.92-6.11,9-11.9,18.12-17.8,27.21S1034.34,350.64,1028.35,359.89ZM350.76,230.13a3.84,3.84,0,0,0,.37-2.73,120.42,120.42,0,0,0-2.28-15.31c-3.81-18-10.93-34.33-23.58-47.89-19.35-20.73-46.54-28.66-74.48-17.53-20.15,8-34.69,22.36-44,41.68-14.12,29.4-16.5,60.16-8.88,91.77a163.88,163.88,0,0,0,16.52,41.67c1.27,2.28,1.71,4.14.55,6.63a16.81,16.81,0,0,0-1.26,10c1.88,11.12,10.7,18.07,22,17.36s20-12,18.14-23.08c-1.93-11.67-12.33-18-20.71-17.16-2.07.2-3.14-.55-4.13-2.34a145.39,145.39,0,0,1-10.4-23.05,136.49,136.49,0,0,1-6.88-54c1-15.7,4.92-30.55,12.71-44.28,5.35-9.43,11.74-17.92,21.43-23.41a71.32,71.32,0,0,1,21.48-8.05,50.07,50.07,0,0,1,13.5-1.3c12.31.94,22.4,6.37,30.6,15.44,11,12.12,17,26.64,20.51,42.38.6,2.68-.12,6.23,1.69,7.89s5.32,1.94,8.1,2.71C344.83,228.35,347.71,229.68,350.76,230.13ZM209.58,393.25c-3.84-.34-8.76-.34-13.62-1.21-17.11-3.06-30-11.78-37.78-27.64-7.47-15.29-7.27-30.63-.36-46,5.43-12.08,13.79-21.93,23.9-30.33a3.34,3.34,0,0,0,1.27-4.14c-1.29-4.34-2.38-8.74-3.53-13.13-.71-2.68-.82-2.77-3.06-1.07a109.33,109.33,0,0,0-23.6,23.82c-13.89,19.6-19.1,41.18-14.26,64.85,4.13,20.23,15.59,34.93,34.25,43.88a86.92,86.92,0,0,0,50.48,7.59,146.73,146.73,0,0,0,60.82-22.53,139,139,0,0,0,47.76-53.12c1.24-2.37,2.53-3.95,5.4-4.57a17.31,17.31,0,0,0,10.34-7.21c4.93-6.88,5.58-14.28,1.56-21.71s-10.67-11.18-19-10.58c-16.21,1.16-24.37,18.91-14.92,32.2,1.44,2,1.3,3.43.21,5.39a115.5,115.5,0,0,1-17.75,24.39c-14.59,15.11-31.9,26.17-51.23,34.14C235,391,223,393.15,209.58,393.25Zm88,6.73c.73.43,1.23.79,1.79,1,15.29,6.82,31.19,10.64,48,10a83.35,83.35,0,0,0,46.3-15.44c17.63-12.55,27.13-29.47,26.94-51.36a83.16,83.16,0,0,0-14.52-46.63c-20.76-30.72-49.92-49.23-85.73-57.68A154.69,154.69,0,0,0,280.24,236c-2.1.06-3.68-.33-4.62-2.33a6.28,6.28,0,0,0-.91-1.21,20.23,20.23,0,0,0-35.14,18.08c2.4,8.48,8.15,13.65,16.79,14.87s15.37-2.15,20-9.47a5.13,5.13,0,0,1,4.81-2.71,128.23,128.23,0,0,1,23.39,1.25,136.42,136.42,0,0,1,59.1,23.72c16.51,11.6,28.94,26.48,36.2,45.46,3.45,9,5.15,18.41,3.2,27.84-4,19.45-15.41,33.1-34.3,39.91-11.34,4.09-23,3.78-34.72,1.74a92,92,0,0,1-18.13-5.23c-1.19-.47-2.25-1-3.49.06C307.53,392,302.62,395.9,297.57,400Z" style="fill:#fff"/><path d="M688.55,360.29c-11.58,0-23.18.14-34.77-.06-5.19-.09-8.89-3-11.46-7.49-8.15-14.35-16.38-28.65-24.59-43-.5-.87-1-1.76-1.51-2.62a10.39,10.39,0,0,0-9.41-5.29c-2.65,0-5.3.06-7.94,0-1.71-.06-2.6.38-2.43,2.31.15,1.75,0,3.53,0,5.29q0,23.83,0,47.66c0,3.51.32,3.28-3.24,3.28q-15.13,0-30.26,0c-3.3,0-3.33,0-3.33-3.25q0-21.18,0-42.37,0-53.71,0-107.43c0-.88,0-1.77,0-2.65.06-2.74.07-2.83,2.66-2.81,19.42.09,38.84-.39,58.25.25a76,76,0,0,1,29.66,6.74c16.31,7.53,24.43,20.5,24.82,38.26.46,21.4-9.36,36.55-28.62,45.69q-1,.48-2,1c-.08,0-.1.17-.22.38,1.61,1.16,3.27,2.28,4.84,3.51a28.4,28.4,0,0,1,6.77,7.58q16.29,26.59,32.53,53.21A1.68,1.68,0,0,1,688.55,360.29ZM596.48,252.71c0,6.93,0,13.86,0,20.78,0,2.71.06,2.77,2.65,2.78,5,0,10.08,0,15.11-.06A30.12,30.12,0,0,0,624.92,274c7.05-2.8,11.55-7.8,13.34-15.25a33.53,33.53,0,0,0,.8-6.74c.36-10.87-5.46-18.57-16-21.29-1.34-.35-2.71-.57-4.07-.8-6.64-1.09-13.33-.36-20-.63-2-.08-2.6.62-2.57,2.58C596.54,238.85,596.48,245.78,596.48,252.71Z" style="fill:#313131"/><path d="M870.47,346.47l-4.18,3.82c-10.11,9.16-21.95,13-35.5,11.55-9.51-1.05-17.12-5.66-23.16-12.94-5.68-6.84-9-14.82-10.91-23.42-3.4-15.55-3.43-31,1.76-46.25,3.58-10.52,9.47-19.49,18.7-25.93,11.33-7.9,23.81-9.79,37.12-6.6,5,1.19,9.19,4,13.45,7,1-1.35.63-2.76.63-4q0-23.84,0-47.67c0-.88.05-1.77,0-2.65-.1-1.48.58-2,2-2q14.94.06,29.89,0c1.5,0,2,.56,1.93,2-.06.75,0,1.51,0,2.27q0,77.18,0,154.36c0,4.91.65,4.26-4.11,4.29q-8.32.06-16.65,0c-4.86,0-7.19-1.75-8.69-6.29C872,351.7,871.32,349.31,870.47,346.47Zm-2-44.73q0-10.59,0-21.17a5.32,5.32,0,0,0-1.31-4.13c-9.71-10.26-27.38-7.73-33.57,4.89a32.09,32.09,0,0,0-2.6,7.47,75.79,75.79,0,0,0,0,31.87,25.27,25.27,0,0,0,3.89,9.36,13.64,13.64,0,0,0,10.8,6,24.6,24.6,0,0,0,20.93-8.44,6.44,6.44,0,0,0,1.84-4.72C868.37,315.86,868.42,308.8,868.42,301.74Z" style="fill:#313131"/><path d="M990.81,348.56c-2,1.68-3.55,3-5.13,4.23-11.66,9.06-24.87,11.56-38.92,7.94-14.36-3.7-22.21-14-25.64-28a58,58,0,0,1-1.55-13.87q0-33.86,0-67.72c0-.76,0-1.51,0-2.27,0-.94.55-1.33,1.43-1.35h.76c9.84,0,19.67,0,29.51,0,1.56,0,2.39.41,2.23,2.12-.08.87,0,1.76,0,2.65q0,32.91,0,65.83a30,30,0,0,0,.77,7.87c1.7,6.35,5.72,10,12.21,10.63,8.23.75,14.9-2.88,20.94-8,1.29-1.1.8-2.58.8-3.9q0-25.16,0-50.32,0-11.73,0-23.46c0-3.88,0-3.4,3.53-3.4h26.86c3.33,0,3.43-.5,3.43,3.56q0,25.16,0,50.32,0,27.24,0,54.48c0,.88,0,1.77,0,2.65,0,1.18-.3,1.91-1.67,1.9-7.06-.05-14.13.07-21.18-.16-3.2-.1-5.26-2.21-6.32-5.19C992.18,353,991.59,351,990.81,348.56Z" style="fill:#313131"/><path d="M715,310.16c.63,6.53,2.17,12.33,5.85,17.33,4.4,6,10.66,8.62,17.89,9.25a35.57,35.57,0,0,0,19.36-4c2.48-1.25,4.9-2.6,7.41-3.77,4.32-2,9.24-2.17,12.66,2.88,2,2.91,4.41,5.51,6.63,8.26,2.41,3,2.57,2.34-.39,5.4a47.35,47.35,0,0,1-16.18,11c-16.05,6.59-32.55,7.79-49.2,2.84-14.24-4.23-25-13.16-31.28-26.66-8.58-18.37-9.77-37.32-1.3-56,8.62-19,24.21-28.77,44.78-30.66A58.49,58.49,0,0,1,753,247.79c18.36,5.31,29.15,17.69,33.24,36.09a55.74,55.74,0,0,1,1,19.55c-.65,4.88-2.17,6.34-7,6.67-1.26.08-2.52.06-3.78.06H715ZM715.7,290c.78.6,1.69.37,2.54.37q17.91,0,35.83,0c.5,0,1,0,1.51,0,1.14,0,1.61-.56,1.55-1.62-.45-8.53-4.15-16.58-14.14-19a24.57,24.57,0,0,0-11.59.08C722.56,271.92,716.48,279.8,715.7,290Z" style="fill:#313131"/><path d="M1028.35,359.89c6-9.25,11.81-18.23,17.63-27.21s11.69-18.26,17.8-27.21c1.82-2.67,1.5-4.43-.18-6.92-10.66-15.77-21.17-31.64-31.71-47.49-.67-1-1.26-2.08-1.88-3.1a3.66,3.66,0,0,1,2.73-.49c9.59,0,19.17.11,28.75-.07,4.54-.09,7.54,1.58,9.83,5.55,5.48,9.5,11.26,18.81,16.93,28.2.58,1,1.2,1.91,2,3.13,1.71-3,3.27-5.86,4.87-8.67,4.24-7.44,8.57-14.84,12.72-22.34,2.23-4,5.2-6,10-5.91,9.44.27,18.89.08,28.49.08,0,1.69-1.12,2.65-1.86,3.72-10.6,15.51-21.18,31-31.92,46.44-1.57,2.25-1.46,3.75,0,6,11.27,17.62,22.42,35.33,33.61,53,.66,1,1.28,2.1,2,3.35a6,6,0,0,1-3.11.41c-9.33,0-18.67-.16-28,.08-5.07.13-8.31-2.09-10.72-6.27q-8.67-15.08-17.48-30.07c-.62-1.06-1-2.3-2.21-3.14-5.74,10.61-12.12,20.79-18.12,31.2a25.42,25.42,0,0,1-4.27,5.75,7.93,7.93,0,0,1-5.73,2.47c-9.71,0-19.42,0-29.13,0A4.62,4.62,0,0,1,1028.35,359.89Z" style="fill:#313131"/><path d="M350.76,230.13c-3-.46-5.93-1.78-8.93-2.61-2.78-.77-6.18-1-8.1-2.71s-1.09-5.21-1.69-7.89c-3.5-15.74-9.55-30.26-20.51-42.38-8.2-9.07-18.29-14.5-30.6-15.44a50.07,50.07,0,0,0-13.5,1.3,71.32,71.32,0,0,0-21.48,8.05c-9.69,5.49-16.08,14-21.43,23.41-7.79,13.73-11.7,28.58-12.71,44.28a136.49,136.49,0,0,0,6.88,54,145.39,145.39,0,0,0,10.4,23.05c1,1.79,2.06,2.54,4.13,2.34,8.38-.81,18.78,5.49,20.71,17.16,1.84,11.13-6.89,22.38-18.14,23.08s-20.15-6.24-22-17.36a16.81,16.81,0,0,1,1.26-10c1.16-2.49.72-4.35-.55-6.63a163.88,163.88,0,0,1-16.52-41.67c-7.61-31.61-5.24-62.37,8.88-91.77,9.28-19.31,23.81-33.65,44-41.68,27.94-11.13,55.13-3.2,74.48,17.53,12.66,13.56,19.77,29.93,23.58,47.89a120.42,120.42,0,0,1,2.28,15.31A3.84,3.84,0,0,1,350.76,230.13Z" style="fill:#784bbc"/><path d="M209.58,393.25c13.4-.1,25.39-2.23,36.82-6.95,19.33-8,36.64-19,51.23-34.14a115.5,115.5,0,0,0,17.75-24.39c1.09-2,1.23-3.36-.21-5.39-9.45-13.3-1.3-31,14.92-32.2,8.37-.6,15,3.14,19,10.58s3.37,14.83-1.56,21.71a17.31,17.31,0,0,1-10.34,7.21c-2.86.62-4.16,2.2-5.4,4.57a139,139,0,0,1-47.76,53.12,146.73,146.73,0,0,1-60.82,22.53,86.92,86.92,0,0,1-50.48-7.59c-18.67-8.95-30.12-23.65-34.25-43.88-4.83-23.67.38-45.26,14.26-64.85a109.33,109.33,0,0,1,23.6-23.82c2.24-1.69,2.35-1.61,3.06,1.07,1.16,4.38,2.25,8.78,3.53,13.13a3.34,3.34,0,0,1-1.27,4.14c-10.11,8.4-18.47,18.25-23.9,30.33-6.9,15.35-7.1,30.69.36,46C165.93,380.26,178.85,389,196,392,200.82,392.91,205.75,392.91,209.58,393.25Z" style="fill:#784bbc"/><path d="M297.57,400c5-4.08,10-8,14.81-12,1.24-1,2.3-.53,3.49-.06A92,92,0,0,0,334,393.14c11.7,2,23.38,2.35,34.72-1.74,18.89-6.82,30.26-20.46,34.3-39.91,2-9.43.25-18.82-3.2-27.84-7.26-19-19.69-33.87-36.2-45.46a136.42,136.42,0,0,0-59.1-23.72,128.23,128.23,0,0,0-23.39-1.25,5.13,5.13,0,0,0-4.81,2.71c-4.58,7.32-11.45,10.67-20,9.47S242,259,239.58,250.53a20.23,20.23,0,0,1,35.14-18.08,6.28,6.28,0,0,1,.91,1.21c.94,2,2.52,2.39,4.62,2.33a154.69,154.69,0,0,1,40.15,3.94c35.81,8.45,65,27,85.73,57.68a83.16,83.16,0,0,1,14.52,46.63c.19,21.9-9.31,38.82-26.94,51.36A83.35,83.35,0,0,1,347.41,411c-16.86.62-32.76-3.2-48-10C298.81,400.77,298.3,400.41,297.57,400Z" style="fill:#784bbc"/><path d="M596.48,252.71c0-6.93.06-13.86,0-20.78,0-2,.59-2.66,2.57-2.58,6.66.27,13.35-.46,20,.63,1.36.22,2.73.45,4.07.8,10.53,2.72,16.34,10.42,16,21.29a33.53,33.53,0,0,1-.8,6.74c-1.78,7.45-6.28,12.44-13.34,15.25a30.12,30.12,0,0,1-10.67,2.16c-5,.09-10.08.09-15.11.06-2.59,0-2.63-.07-2.65-2.78C596.46,266.56,596.48,259.63,596.48,252.71Z" style="fill:#fff"/><path d="M868.42,301.74c0,7.06-.05,14.12,0,21.17a6.44,6.44,0,0,1-1.84,4.72,24.6,24.6,0,0,1-20.93,8.44,13.64,13.64,0,0,1-10.8-6,25.27,25.27,0,0,1-3.89-9.36,75.79,75.79,0,0,1,0-31.87,32.09,32.09,0,0,1,2.6-7.47c6.19-12.62,23.86-15.15,33.57-4.89a5.32,5.32,0,0,1,1.31,4.13Q868.41,291.15,868.42,301.74Z" style="fill:#fff"/><path d="M715.7,290c.78-10.19,6.86-18.07,15.69-20.18a24.57,24.57,0,0,1,11.59-.08c10,2.45,13.69,10.5,14.14,19,.06,1.06-.41,1.66-1.55,1.62-.5,0-1,0-1.51,0q-17.91,0-35.83,0C717.38,290.37,716.47,290.59,715.7,290Z" style="fill:#fff"/></svg>