<?xml version="1.0" encoding="utf-8"?>
<!-- Generator: Adobe Illustrator 21.1.0, SVG Export Plug-In . SVG Version: 6.00 Build 0)  -->
<svg version="1.1" id="Calque_1" xmlns="http://www.w3.org/2000/svg" xmlns:xlink="http://www.w3.org/1999/xlink" x="0px" y="0px"
	 viewBox="0 0 1011.4 269.4" style="enable-background:new 0 0 1011.4 269.4;" xml:space="preserve">
<style type="text/css">
	.st0{fill:#FFFFFF;}
	.st1{fill:#313131;}
	.st2{fill:#784BBC;}
</style>
<title>Plan de travail 1</title>
<path class="st0" d="M-136.7,422.2v-563.8h1366v563.8H-136.7z M551.8,218.7c0.3-0.6,0.2-1.3-0.3-1.8c-10.9-17.7-21.7-35.5-32.5-53.2
	c-1.8-2.9-4.1-5.5-6.8-7.6c-1.6-1.2-3.2-2.4-4.8-3.5c0.1-0.2,0.2-0.3,0.2-0.4c0.7-0.3,1.3-0.7,2-1c19.3-9.1,29.1-24.3,28.6-45.7
	c-0.4-17.8-8.5-30.7-24.8-38.3c-9.3-4.2-19.4-6.5-29.7-6.7c-19.4-0.6-38.8-0.2-58.2-0.2c-2.6,0-2.6,0.1-2.7,2.8c0,0.9,0,1.8,0,2.6
	c0,35.8,0,71.6,0,107.4c0,14.1,0,28.2,0,42.4c0,3.2,0,3.2,3.3,3.2c10.1,0,20.2,0,30.3,0c3.6,0,3.2,0.2,3.2-3.3c0-15.9,0-31.8,0-47.7
	c0-1.8,0.1-3.5,0-5.3c-0.2-1.9,0.7-2.4,2.4-2.3c2.6,0.1,5.3,0.1,7.9,0c3.9-0.1,7.5,1.9,9.4,5.3c0.5,0.9,1,1.7,1.5,2.6
	c8.2,14.3,16.4,28.6,24.6,43c2.6,4.5,6.3,7.4,11.5,7.5C528.7,218.8,540.3,218.7,551.8,218.7z M733.7,204.9c0.9,2.8,1.5,5.2,2.3,7.6
	c1.5,4.5,3.8,6.2,8.7,6.3c5.5,0,11.1,0,16.7,0c4.8,0,4.1,0.6,4.1-4.3c0-51.5,0-102.9,0-154.4c0-0.8,0-1.5,0-2.3c0.1-1.4-0.4-2-1.9-2
	c-10,0-19.9,0-29.9,0c-1.4,0-2.1,0.5-2,2c0.1,0.9,0,1.8,0,2.6c0,15.9,0,31.8,0,47.7c0,1.3,0.4,2.7-0.6,4c-4.3-3.1-8.5-5.9-13.5-7
	c-13.3-3.2-25.8-1.3-37.1,6.6c-9.2,6.4-15.1,15.4-18.7,25.9c-5.2,15.2-5.2,30.7-1.8,46.2c1.9,8.6,5.2,16.6,10.9,23.4
	c6,7.3,13.6,11.9,23.2,12.9c13.5,1.5,25.4-2.4,35.5-11.5L733.7,204.9z M854.1,206.9c0.8,2.5,1.4,4.5,2.1,6.5c1.1,3,3.1,5.1,6.3,5.2
	c7,0.2,14.1,0.1,21.2,0.2c1.4,0,1.7-0.7,1.7-1.9c0-0.9,0-1.8,0-2.6c0-18.2,0-36.3,0-54.5c0-16.8,0-33.5,0-50.3
	c0-4.1-0.1-3.6-3.4-3.6h-26.8c-3.6,0-3.5-0.5-3.5,3.4c0,7.8,0,15.6,0,23.5c0,16.8,0,33.5,0,50.3c0,1.3,0.5,2.8-0.8,3.9
	c-6,5.1-12.7,8.8-20.9,8c-6.5-0.5-10.5-4.3-12.2-10.6c-0.6-2.6-0.9-5.2-0.8-7.9c0-21.9,0-43.9,0-65.8c0-0.9-0.1-1.8,0-2.6
	c0.2-1.7-0.7-2.1-2.2-2.1c-9.8,0-19.7,0-29.5,0h-0.8c-0.9,0-1.4,0.4-1.4,1.4c0,0.8,0,1.5,0,2.3c0,22.6,0,45.1,0,67.7
	c0,4.7,0.5,9.3,1.5,13.9c3.4,14,11.3,24.3,25.6,28c14,3.6,27.3,1.1,38.9-7.9C850.5,209.9,852.1,208.6,854.1,206.9L854.1,206.9z
	 M578.3,168.5h61.4c1.3,0,2.5,0,3.8-0.1c4.8-0.3,6.4-1.8,7-6.7c0.8-6.5,0.5-13.1-1-19.5c-4.1-18.4-14.9-30.8-33.2-36.1
	c-7.1-2-14.4-2.6-21.7-1.8c-20.6,1.9-36.2,11.7-44.8,30.7c-8.5,18.6-7.3,37.6,1.3,56c6.3,13.5,17,22.4,31.3,26.7
	c16.7,4.9,33.2,3.8,49.2-2.8c6.1-2.5,11.6-6.2,16.2-11c3-3.1,2.8-2.4,0.4-5.4c-2.2-2.8-4.7-5.3-6.6-8.3c-3.4-5-8.3-4.9-12.7-2.9
	c-2.5,1.2-4.9,2.5-7.4,3.8c-5.9,3.1-12.7,4.5-19.4,4c-7.2-0.6-13.5-3.3-17.9-9.2C580.4,180.9,578.9,175.1,578.3,168.5z M891.7,218.3
	c0.3,0.2,0.7,0.3,1.1,0.4c9.7,0,19.4,0,29.1,0c2.2,0,4.2-0.9,5.7-2.5c1.7-1.7,3.1-3.6,4.3-5.8c6-10.4,12.4-20.6,18.1-31.2
	c1.2,0.8,1.6,2.1,2.2,3.1c5.9,10,11.7,20,17.5,30.1c2.4,4.2,5.7,6.4,10.7,6.3c9.3-0.2,18.7-0.1,28-0.1c1.1,0.1,2.1,0,3.1-0.4
	c-0.8-1.2-1.4-2.3-2-3.4c-11.2-17.7-22.3-35.4-33.6-53c-1.4-2.2-1.5-3.7,0-6c10.7-15.4,21.3-30.9,31.9-46.4c0.7-1.1,1.8-2,1.9-3.7
	c-9.6,0-19.1,0.2-28.5-0.1c-4.8-0.1-7.8,1.9-10,5.9c-4.2,7.5-8.5,14.9-12.7,22.3c-1.6,2.8-3.2,5.6-4.9,8.7c-0.8-1.2-1.4-2.2-2-3.1
	c-5.7-9.4-11.4-18.7-16.9-28.2c-2.3-4-5.3-5.6-9.8-5.6c-9.6,0.2-19.2,0-28.8,0.1c-0.9-0.2-1.9,0-2.7,0.5c0.6,1,1.2,2.1,1.9,3.1
	c10.6,15.8,21.1,31.7,31.7,47.5c1.7,2.5,2,4.2,0.2,6.9c-6.1,9-11.9,18.1-17.8,27.2S897.6,209,891.7,218.3L891.7,218.3z M214,88.5
	c0.5-0.8,0.6-1.8,0.4-2.7c-0.4-5.1-1.2-10.3-2.3-15.3c-3.8-18-10.9-34.3-23.6-47.9C169.2,1.9,142-6.1,114.1,5.1
	c-20.1,8-34.7,22.4-44,41.7c-14.1,29.4-16.5,60.2-8.9,91.8c3.6,14.6,9.1,28.6,16.5,41.7c1.3,2.3,1.7,4.1,0.6,6.6
	c-1.4,3.1-1.9,6.6-1.3,10c1.9,11.1,10.7,18.1,22,17.4s20-12,18.1-23.1c-1.9-11.7-12.3-18-20.7-17.2c-2.1,0.2-3.1-0.5-4.1-2.3
	c-4.1-7.4-7.6-15.1-10.4-23c-5.9-17.4-8.2-35.7-6.9-54c1-15.7,4.9-30.6,12.7-44.3c5.4-9.4,11.7-17.9,21.4-23.4
	c6.7-3.8,13.9-6.5,21.5-8.1c4.4-1,9-1.5,13.5-1.3c12.3,0.9,22.4,6.4,30.6,15.4c11,12.1,17,26.6,20.5,42.4c0.6,2.7-0.1,6.2,1.7,7.9
	s5.3,1.9,8.1,2.7C208.1,86.7,211,88.1,214,88.5z M72.9,251.6c-3.8-0.3-8.8-0.3-13.6-1.2c-17.1-3.1-30-11.8-37.8-27.6
	c-7.5-15.3-7.3-30.6-0.4-46c5.4-12.1,13.8-21.9,23.9-30.3c1.4-0.9,1.9-2.6,1.3-4.1c-1.3-4.3-2.4-8.7-3.5-13.1
	c-0.7-2.7-0.8-2.8-3.1-1.1c-9,6.7-17,14.7-23.6,23.8C2.2,171.5-3,193.1,1.8,216.8C6,237,17.4,251.7,36.1,260.7
	c15.7,7.5,33.3,10.2,50.5,7.6c21.7-2.9,42.5-10.6,60.8-22.5c20.3-13.2,36.7-31.6,47.8-53.1c1.2-2.4,2.5-4,5.4-4.6
	c4.2-1,7.9-3.6,10.3-7.2c4.9-6.9,5.6-14.3,1.6-21.7s-10.7-11.2-19-10.6c-16.2,1.2-24.4,18.9-14.9,32.2c1.4,2,1.3,3.4,0.2,5.4
	c-4.8,8.9-10.8,17.1-17.8,24.4c-14.6,15.1-31.9,26.2-51.2,34.1C98.3,249.4,86.3,251.5,72.9,251.6z M160.9,258.4
	c0.7,0.4,1.2,0.8,1.8,1c15.3,6.8,31.2,10.6,48,10c16.6-0.4,32.8-5.8,46.3-15.4c17.6-12.5,27.1-29.5,26.9-51.4
	c-0.1-16.6-5.1-32.9-14.5-46.6c-20.8-30.7-49.9-49.2-85.7-57.7c-13.1-3-26.6-4.3-40.1-3.9c-2.1,0.1-3.7-0.3-4.6-2.3
	c-0.3-0.4-0.6-0.8-0.9-1.2c-7.1-8.6-19.9-9.8-28.5-2.7c-6.1,5-8.7,13.1-6.7,20.8c2.4,8.5,8.1,13.7,16.8,14.9
	c8.6,1.2,15.4-2.1,20-9.5c0.9-1.8,2.8-2.8,4.8-2.7c7.8-0.3,15.6,0.1,23.4,1.2c21.3,3.1,41.5,11.3,59.1,23.7
	c16.5,11.6,28.9,26.5,36.2,45.5c3.5,9,5.1,18.4,3.2,27.8c-4,19.5-15.4,33.1-34.3,39.9c-11.3,4.1-23,3.8-34.7,1.7
	c-6.2-1.1-12.3-2.9-18.1-5.2c-1.2-0.5-2.2-1-3.5,0.1C170.8,250.4,165.9,254.3,160.9,258.4L160.9,258.4z"/>
<path class="st1" d="M551.8,218.7c-11.6,0-23.2,0.1-34.8-0.1c-5.2-0.1-8.9-3-11.5-7.5c-8.2-14.4-16.4-28.6-24.6-43
	c-0.5-0.9-1-1.8-1.5-2.6c-1.9-3.4-5.5-5.4-9.4-5.3c-2.7,0-5.3,0.1-7.9,0c-1.7-0.1-2.6,0.4-2.4,2.3c0.2,1.8,0,3.5,0,5.3
	c0,15.9,0,31.8,0,47.7c0,3.5,0.3,3.3-3.2,3.3c-10.1,0-20.2,0-30.3,0c-3.3,0-3.3,0-3.3-3.2c0-14.1,0-28.2,0-42.4
	c0-35.8,0-71.6,0-107.4c0-0.9,0-1.8,0-2.6c0.1-2.7,0.1-2.8,2.7-2.8c19.4,0.1,38.8-0.4,58.2,0.2c10.2,0.2,20.3,2.5,29.7,6.7
	c16.3,7.5,24.4,20.5,24.8,38.3c0.5,21.4-9.4,36.5-28.6,45.7c-0.7,0.3-1.3,0.7-2,1c-0.1,0-0.1,0.2-0.2,0.4c1.6,1.2,3.3,2.3,4.8,3.5
	c2.7,2.1,5,4.7,6.8,7.6c10.9,17.7,21.7,35.5,32.5,53.2C552,217.4,552.1,218.1,551.8,218.7z M459.8,111.1c0,6.9,0,13.9,0,20.8
	c0,2.7,0.1,2.8,2.7,2.8c5,0,10.1,0,15.1-0.1c3.7-0.1,7.3-0.8,10.7-2.2c7-2.8,11.5-7.8,13.3-15.2c0.5-2.2,0.8-4.5,0.8-6.7
	c0.4-10.9-5.5-18.6-16-21.3c-1.3-0.4-2.7-0.6-4.1-0.8c-6.6-1.1-13.3-0.4-20-0.6c-2-0.1-2.6,0.6-2.6,2.6
	C459.8,97.2,459.8,104.2,459.8,111.1z"/>
<path class="st1" d="M733.8,204.9l-4.2,3.8c-10.1,9.2-22,13-35.5,11.5c-9.5-1-17.1-5.7-23.2-12.9c-5.7-6.8-9-14.8-10.9-23.4
	c-3.4-15.5-3.4-31,1.8-46.2c3.6-10.5,9.5-19.5,18.7-25.9c11.3-7.9,23.8-9.8,37.1-6.6c5,1.2,9.2,4,13.5,7c1-1.4,0.6-2.8,0.6-4
	c0-15.9,0-31.8,0-47.7c0-0.9,0-1.8,0-2.6c-0.1-1.5,0.6-2,2-2c10,0,19.9,0,29.9,0c1.5,0,2,0.6,1.9,2c-0.1,0.8,0,1.5,0,2.3
	c0,51.5,0,102.9,0,154.4c0,4.9,0.7,4.3-4.1,4.3c-5.5,0-11.1,0-16.7,0c-4.9,0-7.2-1.8-8.7-6.3C735.3,210.1,734.6,207.7,733.8,204.9z
	 M731.8,160.1c0-7.1,0-14.1,0-21.2c0.2-1.5-0.3-3-1.3-4.1c-9.7-10.3-27.4-7.7-33.6,4.9c-1.2,2.4-2,4.9-2.6,7.5
	c-2.3,10.5-2.3,21.4,0,31.9c0.7,3.4,2,6.5,3.9,9.4c2.4,3.6,6.4,5.8,10.8,6c7.9,0.7,15.7-2.4,20.9-8.4c1.2-1.3,1.9-3,1.8-4.7
	C731.7,174.2,731.7,167.2,731.8,160.1L731.8,160.1z"/>
<path class="st1" d="M854.1,206.9c-2,1.7-3.5,3-5.1,4.2c-11.7,9.1-24.9,11.6-38.9,7.9c-14.4-3.7-22.2-14-25.6-28
	c-1.1-4.5-1.6-9.2-1.5-13.9c0-22.6,0-45.1,0-67.7c0-0.8,0-1.5,0-2.3c0-0.9,0.5-1.3,1.4-1.4h0.8c9.8,0,19.7,0,29.5,0
	c1.6,0,2.4,0.4,2.2,2.1c-0.1,0.9,0,1.8,0,2.6c0,21.9,0,43.9,0,65.8c-0.1,2.6,0.2,5.3,0.8,7.9c1.7,6.4,5.7,10,12.2,10.6
	c8.2,0.8,14.9-2.9,20.9-8c1.3-1.1,0.8-2.6,0.8-3.9c0-16.8,0-33.5,0-50.3c0-7.8,0-15.6,0-23.5c0-3.9,0-3.4,3.5-3.4h26.9
	c3.3,0,3.4-0.5,3.4,3.6c0,16.8,0,33.5,0,50.3c0,18.2,0,36.3,0,54.5c0,0.9,0,1.8,0,2.6c0,1.2-0.3,1.9-1.7,1.9
	c-7.1,0-14.1,0.1-21.2-0.2c-3.2-0.1-5.3-2.2-6.3-5.2C855.5,211.4,854.9,209.4,854.1,206.9z"/>
<path class="st1" d="M578.3,168.5c0.6,6.5,2.2,12.3,5.8,17.3c4.4,6,10.7,8.6,17.9,9.2c6.7,0.5,13.4-0.9,19.4-4
	c2.5-1.2,4.9-2.6,7.4-3.8c4.3-2,9.2-2.2,12.7,2.9c2,2.9,4.4,5.5,6.6,8.3c2.4,3,2.6,2.3-0.4,5.4c-4.6,4.8-10.1,8.5-16.2,11
	c-16,6.6-32.5,7.8-49.2,2.8c-14.2-4.2-25-13.2-31.3-26.7c-8.6-18.4-9.8-37.3-1.3-56c8.6-19,24.2-28.8,44.8-30.7
	c7.3-0.8,14.7-0.2,21.8,1.8c18.4,5.3,29.2,17.7,33.2,36.1c1.5,6.4,1.8,13,1,19.5c-0.7,4.9-2.2,6.3-7,6.7c-1.3,0.1-2.5,0.1-3.8,0.1
	H578.3z M579,148.4c0.8,0.6,1.7,0.4,2.5,0.4c11.9,0,23.9,0,35.8,0c0.5,0,1,0,1.5,0c1.1,0,1.6-0.6,1.5-1.6c-0.5-8.5-4.2-16.6-14.1-19
	c-3.8-0.9-7.8-0.9-11.6,0.1C585.8,130.3,579.8,138.2,579,148.4z"/>
<path class="st1" d="M891.6,218.3c6-9.2,11.8-18.2,17.6-27.2s11.7-18.3,17.8-27.2c1.8-2.7,1.5-4.4-0.2-6.9
	c-10.7-15.8-21.2-31.6-31.7-47.5c-0.7-1-1.3-2.1-1.9-3.1c0.8-0.5,1.8-0.7,2.7-0.5c9.6,0,19.2,0.1,28.8-0.1c4.5-0.1,7.5,1.6,9.8,5.6
	c5.5,9.5,11.3,18.8,16.9,28.2c0.6,1,1.2,1.9,2,3.1c1.7-3,3.3-5.9,4.9-8.7c4.2-7.4,8.6-14.8,12.7-22.3c2.2-4,5.2-6,10-5.9
	c9.4,0.3,18.9,0.1,28.5,0.1c0,1.7-1.1,2.6-1.9,3.7c-10.6,15.5-21.2,31-31.9,46.4c-1.6,2.2-1.5,3.8,0,6c11.3,17.6,22.4,35.3,33.6,53
	c0.7,1,1.3,2.1,2,3.4c-1,0.4-2.1,0.6-3.1,0.4c-9.3,0-18.7-0.2-28,0.1c-5.1,0.1-8.3-2.1-10.7-6.3c-5.8-10.1-11.6-20.1-17.5-30.1
	c-0.6-1.1-1-2.3-2.2-3.1c-5.7,10.6-12.1,20.8-18.1,31.2c-1.1,2.1-2.6,4-4.3,5.8c-1.5,1.6-3.6,2.5-5.7,2.5c-9.7,0-19.4,0-29.1,0
	C892.3,218.6,892,218.5,891.6,218.3z"/>
<path class="st2" d="M214,88.5c-3-0.5-5.9-1.8-8.9-2.6c-2.8-0.8-6.2-1-8.1-2.7s-1.1-5.2-1.7-7.9c-3.5-15.7-9.5-30.3-20.5-42.4
	c-8.2-9.1-18.3-14.5-30.6-15.4c-4.5-0.2-9.1,0.3-13.5,1.3c-7.5,1.5-14.8,4.2-21.5,8.1c-9.7,5.5-16.1,14-21.4,23.4
	C80,64,76.1,78.8,75.1,94.5c-1.4,18.3,1,36.6,6.9,54c2.8,8,6.3,15.7,10.4,23c1,1.8,2.1,2.5,4.1,2.3c8.4-0.8,18.8,5.5,20.7,17.2
	c1.8,11.1-6.9,22.4-18.1,23.1s-20.1-6.2-22-17.4c-0.6-3.4-0.2-6.9,1.3-10c1.2-2.5,0.7-4.4-0.6-6.6c-7.4-13.1-12.9-27.1-16.5-41.7
	c-7.6-31.6-5.2-62.4,8.9-91.8C79.4,27.4,94,13.1,114.1,5c27.9-11.1,55.1-3.2,74.5,17.5c12.7,13.6,19.8,29.9,23.6,47.9
	c1.1,5,1.8,10.2,2.3,15.3C214.7,86.7,214.5,87.7,214,88.5z"/>
<path class="st2" d="M72.9,251.6c13.4-0.1,25.4-2.2,36.8-7c19.3-8,36.6-19,51.2-34.1c7-7.3,12.9-15.5,17.8-24.4
	c1.1-2,1.2-3.4-0.2-5.4c-9.5-13.3-1.3-31,14.9-32.2c8.4-0.6,15,3.1,19,10.6s3.4,14.8-1.6,21.7c-2.4,3.6-6.1,6.2-10.3,7.2
	c-2.9,0.6-4.2,2.2-5.4,4.6c-11,21.6-27.5,39.9-47.8,53.1c-18.3,12-39.1,19.7-60.8,22.5c-17.2,2.6-34.8-0.1-50.5-7.6
	c-18.7-9-30.1-23.7-34.2-43.9C-3.1,193.1,2.1,171.6,16,152c6.6-9.1,14.6-17.1,23.6-23.8c2.2-1.7,2.4-1.6,3.1,1.1
	c1.2,4.4,2.2,8.8,3.5,13.1c0.6,1.5,0.1,3.3-1.3,4.1c-10.1,8.4-18.5,18.2-23.9,30.3c-6.9,15.4-7.1,30.7,0.4,46
	c7.8,15.8,20.7,24.6,37.9,27.6C64.1,251.3,69,251.3,72.9,251.6z"/>
<path class="st2" d="M160.9,258.4c5-4.1,10-8,14.8-12c1.2-1,2.3-0.5,3.5-0.1c5.8,2.3,11.9,4.1,18.1,5.2c11.7,2,23.4,2.4,34.7-1.7
	c18.9-6.8,30.3-20.5,34.3-39.9c2-9.4,0.2-18.8-3.2-27.8c-7.3-19-19.7-33.9-36.2-45.5c-17.6-12.5-37.8-20.6-59.1-23.7
	c-7.7-1.1-15.6-1.5-23.4-1.2c-2-0.1-3.9,0.9-4.8,2.7c-4.6,7.3-11.5,10.7-20,9.5s-14.3-6.4-16.7-14.9c-2.9-10.8,3.6-21.9,14.4-24.7
	c7.6-2,15.7,0.6,20.8,6.7c0.4,0.4,0.7,0.8,0.9,1.2c0.9,2,2.5,2.4,4.6,2.3c13.5-0.4,27,0.9,40.1,3.9c35.8,8.4,65,27,85.7,57.7
	c9.4,13.7,14.5,30,14.5,46.6c0.2,21.9-9.3,38.8-26.9,51.4c-13.6,9.6-29.7,15-46.3,15.4c-16.9,0.6-32.8-3.2-48-10
	C162.1,259.2,161.6,258.8,160.9,258.4z"/>
<path class="st0" d="M459.8,111.1c0-6.9,0.1-13.9,0-20.8c0-2,0.6-2.7,2.6-2.6c6.7,0.3,13.3-0.5,20,0.6c1.4,0.2,2.7,0.4,4.1,0.8
	c10.5,2.7,16.3,10.4,16,21.3c0,2.3-0.3,4.5-0.8,6.7c-1.8,7.5-6.3,12.4-13.3,15.2c-3.4,1.4-7,2.1-10.7,2.2c-5,0.1-10.1,0.1-15.1,0.1
	c-2.6,0-2.6-0.1-2.7-2.8C459.7,124.9,459.8,118,459.8,111.1z"/>
<path class="st0" d="M731.7,160.1c0,7.1,0,14.1,0,21.2c0.1,1.8-0.6,3.5-1.8,4.7c-5.2,6-13,9.2-20.9,8.4c-4.4-0.2-8.4-2.4-10.8-6
	c-1.9-2.8-3.2-6-3.9-9.4c-2.3-10.5-2.3-21.4,0-31.9c0.6-2.6,1.4-5.1,2.6-7.5c6.2-12.6,23.9-15.1,33.6-4.9c1,1.1,1.5,2.6,1.3,4.1
	C731.7,146,731.7,153.1,731.7,160.1z"/>
<path class="st0" d="M579,148.4c0.8-10.2,6.9-18.1,15.7-20.2c3.8-1,7.8-1,11.6-0.1c10,2.5,13.7,10.5,14.1,19
	c0.1,1.1-0.4,1.7-1.5,1.6c-0.5,0-1,0-1.5,0c-11.9,0-23.9,0-35.8,0C580.7,148.8,579.8,149,579,148.4z"/>
</svg>
